<?xml version="1.0" encoding="utf-8"?>
<!-- Generator: Adobe Illustrator 27.0.1, SVG Export Plug-In . SVG Version: 6.00 Build 0)  -->
<svg version="1.1" id="Layer_1" xmlns="http://www.w3.org/2000/svg" xmlns:xlink="http://www.w3.org/1999/xlink" x="0px" y="0px"
	 viewBox="0 0 454 94.2" style="enable-background:new 0 0 454 94.2;" xml:space="preserve">
<style type="text/css">
	.st0{fill:#faf7f2;}
	.st1{fill:none;}
</style>
<g>
	<path class="st0" d="M24.6,6.7c10.8,0,18.5,7.7,18.5,21.1c0,13.3-7.7,21-18.5,21c-10.8,0-18.5-7.7-18.5-21.1
		C6.1,14.4,13.8,6.7,24.6,6.7z M24.6,44.4c8.1,0,13.9-5.7,13.9-16.6c0-11-5.8-16.7-13.9-16.7c-8.1,0-13.9,5.7-13.9,16.6
		C10.8,38.6,16.5,44.4,24.6,44.4z"/>
	<path class="st0" d="M73.4,35.4c0,9-4.5,13.3-12.4,13.3c-8,0-12.4-4.3-12.4-13.3V15.6h4.4v20.2c0,5.9,2.5,8.8,8,8.8
		c5.5,0,8-3,8-8.8V15.6h4.3V35.4z"/>
	<path class="st0" d="M93.3,19.7V48H89V19.7H78.8v-4.1h24.6v4.1H93.3z"/>
	<path class="st0" d="M122.5,15.6h4.3V48h-4.3V15.6z"/>
	<path class="st0" d="M155.4,48l-16.1-25.6h-0.1c0,0.1,0.1,3.7,0.1,7.5V48H135V15.6h4.6l16.1,25.2h0.1c0-0.1-0.1-3.5-0.1-7.1V15.6
		h4.3V48H155.4z"/>
	<path class="st0" d="M193.6,19.7V48h-4.3V19.7h-10.1v-4.1h24.6v4.1H193.6z"/>
	<path class="st0" d="M229.6,48V33.4H214V48h-4.3V15.6h4.3v13.7h15.5V15.6h4.4V48H229.6z"/>
	<path class="st0" d="M242,15.6h20.6v4.1h-16.2v9.6h12.5v4h-12.5v10.7h16.5V48H242V15.6z"/>
	<path class="st0" d="M284.8,36.5c0.4,5.3,4.3,8,10.1,8c5.3,0,8.4-2.3,8.4-6.9c0-6.3-5.7-7-10.4-8.6c-5.2-1.7-11.5-3.9-11.5-11.8
		c0-6.7,4.6-10.6,12.5-10.6c6.8,0,12.1,2.9,13.6,9.9l-4.3,1.2c-1-4.5-3.8-6.9-9.2-6.9c-5.2,0-7.9,2.3-7.9,6.3c0,5.1,4.4,6.5,9.8,8.2
		c5.7,1.7,12.1,3.8,12.1,12.2c0,7.4-4.8,11.2-13.1,11.2c-6.6,0-13.3-2.4-14.4-11L284.8,36.5z"/>
	<path class="st0" d="M326.2,19.7V48h-4.3V19.7h-10.2v-4.1h24.7v4.1H326.2z"/>
	<path class="st0" d="M352.8,35c-1.2,0.1-2.5,0.1-3.1,0.1h-3.1V48h-4.3V15.6h9.6c7.5,0,11.7,3.6,11.7,9.7c0,5-2.7,7.9-6.7,8.9
		l7.5,13.9h-4.7L352.8,35z M352,31.6c4.6,0,7.2-1.9,7.2-6c0-4.2-2.7-6-7.4-6h-5.3v12H352z"/>
	<path class="st0" d="M370.6,15.6h20.6v4.1h-16.2v9.6h12.5v4h-12.5v10.7h16.5V48h-20.8V15.6z"/>
	<path class="st0" d="M398,15.6h20.6v4.1h-16.2v9.6h12.5v4h-12.5v10.7h16.5V48H398V15.6z"/>
	<path class="st0" d="M437.8,19.7V48h-4.3V19.7h-10.2v-4.1H448v4.1H437.8z"/>
</g>
<g>
	<path class="st0" d="M72.6,84.2c0,0.6,0,1.1,0.1,1.4c0.1,0.4,0.2,0.6,0.3,0.8c0.1,0.2,0.3,0.4,0.6,0.5c0.2,0.1,0.6,0.2,1.1,0.3V88
		H68v-0.7c0.6-0.2,1-0.3,1.3-0.5c0.2-0.2,0.4-0.5,0.4-0.8c0.1-0.4,0.1-0.9,0.1-1.7V71.2c0-0.7,0-1.2-0.1-1.5
		c-0.1-0.3-0.1-0.6-0.2-0.7c-0.1-0.2-0.3-0.3-0.5-0.4c-0.2-0.1-0.5-0.2-1-0.4v-0.7h7.5c2.4,0,4.1,0.5,5.3,1.4
		c1.2,0.9,1.7,2.3,1.7,4.1c0,1-0.2,2-0.5,2.8c-0.4,0.8-0.9,1.5-1.5,2.1c-0.7,0.5-1.5,0.9-2.4,1.2c-0.9,0.2-1.9,0.3-2.9,0.3
		c-1.1,0-2,0-2.6-0.1V84.2z M72.6,77.9h1.8c1.1,0,2.1-0.1,2.8-0.4c0.7-0.3,1.3-0.8,1.7-1.5c0.4-0.7,0.6-1.6,0.6-2.7
		c0-0.9-0.1-1.6-0.3-2.2c-0.2-0.6-0.6-1-1-1.4c-0.4-0.4-0.9-0.6-1.5-0.7c-0.6-0.1-1.2-0.2-1.8-0.2c-1,0-1.8,0-2.3,0.1V77.9z"/>
	<path class="st0" d="M112.5,84.3c0,0.6,0,1,0,1.3c0,0.3,0.1,0.5,0.2,0.7c0.1,0.2,0.2,0.3,0.3,0.4c0.1,0.1,0.2,0.2,0.4,0.3
		c0.2,0.1,0.5,0.2,0.9,0.3V88h-6.3v-0.7c0.6-0.1,0.9-0.3,1.2-0.5c0.2-0.2,0.4-0.4,0.5-0.8c0.1-0.4,0.1-0.9,0.1-1.8v-6.3h-8.4v6.3
		c0,0.7,0,1.2,0.1,1.5c0,0.3,0.1,0.6,0.2,0.7c0.1,0.2,0.3,0.3,0.5,0.5c0.2,0.1,0.5,0.2,1,0.4V88h-6.4v-0.7c0.6-0.2,1-0.3,1.3-0.5
		c0.2-0.2,0.4-0.5,0.4-0.8c0.1-0.4,0.1-0.9,0.1-1.7V71.2c0-0.7,0-1.2-0.1-1.5c-0.1-0.3-0.1-0.6-0.2-0.7c-0.1-0.2-0.3-0.3-0.5-0.4
		c-0.2-0.1-0.5-0.2-1-0.4v-0.7h6.4v0.7c-0.4,0.1-0.8,0.2-1,0.3c-0.2,0.1-0.4,0.2-0.5,0.4c-0.1,0.2-0.2,0.4-0.3,0.7
		c-0.1,0.3-0.1,0.8-0.1,1.5v5.4h8.4v-5.4c0-0.9,0-1.5-0.1-1.8c-0.1-0.3-0.2-0.6-0.4-0.7c-0.2-0.2-0.6-0.3-1.2-0.5v-0.7h6.3v0.7
		c-0.6,0.1-1,0.3-1.2,0.5c-0.2,0.2-0.4,0.4-0.5,0.8c-0.1,0.4-0.1,0.9-0.1,1.8V84.3z"/>
	<path class="st0" d="M137.1,88.3c-1.2,0-2.3-0.2-3.3-0.6c-1-0.4-1.8-1-2.6-1.9c-0.7-0.8-1.3-1.9-1.7-3.2c-0.4-1.3-0.6-2.9-0.6-4.7
		c0-2.2,0.3-4.2,1-5.8c0.7-1.6,1.7-2.8,2.9-3.7c1.3-0.8,2.8-1.3,4.4-1.3c1.8,0,3.3,0.4,4.5,1.2c1.2,0.8,2.1,2,2.8,3.5
		c0.6,1.5,0.9,3.4,0.9,5.6c0,2.4-0.4,4.4-1.1,6c-0.7,1.6-1.7,2.8-3,3.6C140.3,87.9,138.8,88.3,137.1,88.3z M132.1,77.5
		c0,3.1,0.5,5.5,1.4,7.1c0.9,1.6,2.2,2.4,4,2.4c1.1,0,2-0.4,2.8-1.1c0.8-0.7,1.3-1.7,1.7-3.1c0.4-1.4,0.6-2.9,0.6-4.7
		c0-2.2-0.2-4-0.7-5.5c-0.4-1.4-1.1-2.5-1.8-3.2c-0.8-0.7-1.7-1-2.7-1c-0.9,0-1.7,0.2-2.3,0.6c-0.7,0.4-1.2,1-1.6,1.8
		c-0.4,0.8-0.7,1.7-0.9,2.8C132.2,74.9,132.1,76.1,132.1,77.5z"/>
	<path class="st0" d="M159.1,67.4h16.4v5.3H174c-0.2-0.9-0.4-1.6-0.7-2.1c-0.2-0.5-0.4-0.9-0.7-1.2c-0.2-0.3-0.5-0.4-0.8-0.6
		c-0.3-0.1-0.7-0.2-1.2-0.2h-1.9v15.5c0,0.6,0,1.1,0.1,1.4c0.1,0.4,0.2,0.6,0.3,0.8c0.1,0.2,0.3,0.4,0.6,0.5
		c0.2,0.1,0.6,0.2,1.1,0.3V88h-6.9v-0.7c0.3-0.1,0.6-0.1,0.8-0.2c0.2-0.1,0.4-0.2,0.6-0.3c0.1-0.1,0.3-0.3,0.4-0.4
		c0.1-0.2,0.2-0.4,0.2-0.7c0.1-0.3,0.1-0.8,0.1-1.4V68.7h-1.9c-0.5,0-0.9,0-1.2,0.1c-0.3,0.1-0.6,0.3-0.9,0.6
		c-0.3,0.3-0.5,0.7-0.7,1.2c-0.2,0.5-0.4,1.2-0.6,2h-1.5V67.4z"/>
	<path class="st0" d="M197,88.3c-1.2,0-2.3-0.2-3.3-0.6c-1-0.4-1.8-1-2.6-1.9c-0.7-0.8-1.3-1.9-1.7-3.2c-0.4-1.3-0.6-2.9-0.6-4.7
		c0-2.2,0.3-4.2,1-5.8c0.7-1.6,1.7-2.8,2.9-3.7c1.3-0.8,2.8-1.3,4.4-1.3c1.8,0,3.3,0.4,4.5,1.2c1.2,0.8,2.1,2,2.8,3.5
		c0.6,1.5,0.9,3.4,0.9,5.6c0,2.4-0.4,4.4-1.1,6c-0.7,1.6-1.7,2.8-3,3.6C200.2,87.9,198.7,88.3,197,88.3z M192,77.5
		c0,3.1,0.5,5.5,1.4,7.1c0.9,1.6,2.2,2.4,4,2.4c1.1,0,2-0.4,2.8-1.1c0.8-0.7,1.3-1.7,1.7-3.1c0.4-1.4,0.6-2.9,0.6-4.7
		c0-2.2-0.2-4-0.7-5.5c-0.4-1.4-1.1-2.5-1.8-3.2c-0.8-0.7-1.7-1-2.7-1c-0.9,0-1.7,0.2-2.3,0.6c-0.7,0.4-1.2,1-1.6,1.8
		c-0.4,0.8-0.7,1.7-0.9,2.8C192.1,74.9,192,76.1,192,77.5z"/>
	<path class="st0" d="M234.7,88l-1.2,0.3l-1.1-1.2c-0.7,0.4-1.3,0.7-2.1,0.9c-0.7,0.2-1.5,0.3-2.5,0.3c-2.6,0-4.5-0.9-5.8-2.6
		c-1.3-1.8-1.9-4.4-1.9-7.8c0-2.1,0.4-4,1.1-5.7c0.7-1.6,1.7-2.9,3-3.7c1.3-0.9,2.9-1.3,4.7-1.3c0.9,0,1.8,0.1,2.7,0.2
		c0.9,0.1,1.8,0.3,2.9,0.6V72h-1.5c-0.3-0.9-0.6-1.6-1-2.1c-0.4-0.5-0.8-0.9-1.3-1.1c-0.5-0.2-1.2-0.3-2-0.3c-1.1,0-2.1,0.4-2.9,1.1
		c-0.8,0.7-1.5,1.7-1.9,3.1c-0.5,1.4-0.7,3-0.7,5c0,2,0.2,3.7,0.6,5.1c0.4,1.4,1,2.5,1.7,3.2c0.8,0.7,1.7,1.1,2.8,1.1
		c1.2,0,2.1-0.3,2.6-0.8c0.6-0.5,0.9-1.3,0.9-2.4v-0.9c0-0.9,0-1.6-0.1-2c-0.1-0.4-0.3-0.7-0.5-0.9c-0.2-0.2-0.6-0.4-1.2-0.5v-0.7
		h6.1v0.7c-0.4,0.1-0.6,0.3-0.8,0.4c-0.2,0.2-0.3,0.4-0.4,0.6c-0.1,0.2-0.2,0.5-0.2,0.9c0,0.3-0.1,0.8-0.1,1.4V88z"/>
	<path class="st0" d="M254.9,79.1v5.1c0,0.7,0,1.3,0.1,1.6c0.1,0.3,0.1,0.6,0.2,0.7c0.1,0.2,0.3,0.3,0.5,0.4c0.2,0.1,0.5,0.2,1,0.4
		V88h-6.4v-0.7c0.6-0.2,1-0.3,1.3-0.5c0.2-0.2,0.4-0.5,0.4-0.8s0.1-0.9,0.1-1.7V71.2c0-0.7,0-1.2-0.1-1.5c-0.1-0.3-0.1-0.6-0.2-0.7
		c-0.1-0.2-0.3-0.3-0.5-0.4c-0.2-0.1-0.5-0.2-1-0.4v-0.7h7.5c2.4,0,4.1,0.4,5.3,1.3c1.2,0.9,1.8,2.2,1.8,4c0,1.4-0.4,2.6-1.1,3.5
		c-0.8,1-1.9,1.7-3.4,2.3v0.1c0.6,0.3,1.1,0.6,1.6,1.1c0.4,0.5,0.9,1.2,1.5,2.2l1.4,2.5c0.4,0.7,0.7,1.3,1,1.7
		c0.3,0.4,0.6,0.7,0.9,0.9c0.3,0.2,0.7,0.3,1.2,0.4V88h-4.2c-0.4-0.5-0.7-1.1-1.1-1.7c-0.3-0.6-0.7-1.2-1-1.9l-1.3-2.5
		c-0.4-0.8-0.7-1.3-1-1.7c-0.3-0.4-0.5-0.6-0.7-0.8c-0.2-0.1-0.4-0.2-0.7-0.3c-0.2-0.1-0.6-0.1-1.1-0.1H254.9z M254.9,68.8v9h1.7
		c0.9,0,1.6-0.1,2.1-0.2c0.5-0.1,1-0.4,1.5-0.7c0.5-0.4,0.8-0.8,1.1-1.5c0.3-0.6,0.4-1.4,0.4-2.3c0-1-0.2-1.8-0.5-2.4
		c-0.3-0.6-0.8-1.1-1.5-1.5s-1.6-0.5-2.7-0.5C256.2,68.7,255.4,68.7,254.9,68.8z"/>
	<path class="st0" d="M290.8,88v-0.7c0.5-0.1,0.9-0.2,1.1-0.3c0.2-0.1,0.4-0.3,0.6-0.5c0.1-0.2,0.2-0.5,0.2-0.9c0-0.3,0-0.7-0.1-1.1
		c-0.1-0.4-0.2-0.8-0.3-1.3l-0.6-2h-7.1l-0.5,1.5c-0.3,0.7-0.4,1.3-0.5,1.7c-0.1,0.4-0.1,0.7-0.1,1c0,0.6,0.2,1,0.5,1.3
		c0.3,0.3,0.8,0.5,1.4,0.6V88h-6.5v-0.7c0.6-0.1,1.1-0.4,1.5-1c0.4-0.6,0.8-1.4,1.2-2.4l6.3-16.8h2.4l5.1,16.9
		c0.2,0.8,0.5,1.4,0.6,1.8c0.2,0.4,0.4,0.7,0.7,1c0.3,0.2,0.6,0.4,1.1,0.5V88H290.8z M285,79.9h6.3l-2.9-9.8L285,79.9z"/>
	<path class="st0" d="M315.5,84.2c0,0.6,0,1.1,0.1,1.4c0.1,0.4,0.2,0.6,0.3,0.8c0.1,0.2,0.3,0.4,0.6,0.5c0.2,0.1,0.6,0.2,1.1,0.3V88
		h-6.6v-0.7c0.6-0.2,1-0.3,1.3-0.5c0.2-0.2,0.4-0.5,0.4-0.8s0.1-0.9,0.1-1.7V71.2c0-0.7,0-1.2-0.1-1.5c-0.1-0.3-0.1-0.6-0.2-0.7
		c-0.1-0.2-0.3-0.3-0.5-0.4c-0.2-0.1-0.5-0.2-1-0.4v-0.7h7.5c2.4,0,4.1,0.5,5.3,1.4c1.2,0.9,1.7,2.3,1.7,4.1c0,1-0.2,2-0.5,2.8
		c-0.4,0.8-0.9,1.5-1.5,2.1c-0.7,0.5-1.5,0.9-2.4,1.2c-0.9,0.2-1.9,0.3-2.9,0.3c-1.1,0-2,0-2.6-0.1V84.2z M315.5,77.9h1.8
		c1.1,0,2.1-0.1,2.8-0.4c0.7-0.3,1.3-0.8,1.7-1.5c0.4-0.7,0.6-1.6,0.6-2.7c0-0.9-0.1-1.6-0.3-2.2c-0.2-0.6-0.6-1-1-1.4
		c-0.4-0.4-0.9-0.6-1.5-0.7c-0.6-0.1-1.2-0.2-1.8-0.2c-1,0-1.8,0-2.3,0.1V77.9z"/>
	<path class="st0" d="M355.5,84.3c0,0.6,0,1,0,1.3c0,0.3,0.1,0.5,0.2,0.7c0.1,0.2,0.2,0.3,0.3,0.4c0.1,0.1,0.2,0.2,0.4,0.3
		c0.2,0.1,0.5,0.2,0.9,0.3V88h-6.3v-0.7c0.6-0.1,0.9-0.3,1.2-0.5c0.2-0.2,0.4-0.4,0.5-0.8c0.1-0.4,0.1-0.9,0.1-1.8v-6.3h-8.4v6.3
		c0,0.7,0,1.2,0.1,1.5c0,0.3,0.1,0.6,0.2,0.7c0.1,0.2,0.3,0.3,0.5,0.5s0.5,0.2,1,0.4V88h-6.4v-0.7c0.6-0.2,1-0.3,1.3-0.5
		c0.2-0.2,0.4-0.5,0.4-0.8s0.1-0.9,0.1-1.7V71.2c0-0.7,0-1.2-0.1-1.5c-0.1-0.3-0.1-0.6-0.2-0.7c-0.1-0.2-0.3-0.3-0.5-0.4
		c-0.2-0.1-0.5-0.2-1-0.4v-0.7h6.4v0.7c-0.4,0.1-0.8,0.2-1,0.3c-0.2,0.1-0.4,0.2-0.5,0.4c-0.1,0.2-0.2,0.4-0.3,0.7
		c-0.1,0.3-0.1,0.8-0.1,1.5v5.4h8.4v-5.4c0-0.9,0-1.5-0.1-1.8c-0.1-0.3-0.2-0.6-0.4-0.7c-0.2-0.2-0.6-0.3-1.2-0.5v-0.7h6.3v0.7
		c-0.6,0.1-1,0.3-1.2,0.5c-0.2,0.2-0.4,0.4-0.5,0.8c-0.1,0.4-0.1,0.9-0.1,1.8V84.3z"/>
	<path class="st0" d="M377.4,79.4l-4.2-7.8c-0.5-0.9-0.9-1.6-1.2-2c-0.3-0.4-0.5-0.7-0.8-1c-0.3-0.2-0.6-0.4-0.9-0.5v-0.7h6.4v0.7
		c-0.9,0.1-1.4,0.5-1.4,1.2c0,0.3,0.1,0.6,0.2,1c0.1,0.4,0.4,0.9,0.7,1.5l3,5.8l3-5.3c0.4-0.7,0.7-1.3,0.9-1.8
		c0.2-0.5,0.2-0.9,0.2-1.3c0-0.4-0.1-0.6-0.3-0.9c-0.2-0.2-0.5-0.3-1-0.4v-0.7h5.7v0.7c-0.4,0.2-0.8,0.4-1.1,0.6
		c-0.3,0.3-0.6,0.6-1,1.1c-0.3,0.5-0.8,1.2-1.4,2.3l-4.2,7.2v4.9c0,0.6,0,1,0.1,1.4c0.1,0.4,0.2,0.6,0.3,0.8
		c0.1,0.2,0.3,0.4,0.6,0.5s0.6,0.2,1.1,0.3V88h-6.9v-0.7c0.5-0.1,0.8-0.2,1.1-0.3c0.2-0.1,0.4-0.3,0.6-0.5c0.1-0.2,0.2-0.5,0.3-0.9
		c0.1-0.4,0.1-0.8,0.1-1.4V79.4z"/>
</g>
<path class="st1" d="M-86.8,43.4"/>
</svg>
