<?xml version="1.0" encoding="UTF-8"?><svg id="Layer_1" xmlns="http://www.w3.org/2000/svg" width="453.9574" height="94.2128" viewBox="0 0 453.9574 94.2128"><defs><style>.cls-1{fill:#161412;}</style></defs><g><path class="cls-1" d="M24.6476,6.6802c10.7876,0,18.5015,7.6558,18.5015,21.0537,0,13.2812-7.7139,20.9951-18.5015,20.9951S6.1457,41.0733,6.1457,27.6758C6.1457,14.3941,13.8014,6.6802,24.6476,6.6802Zm0,37.6992c8.0615,0,13.8613-5.7422,13.8613-16.6455,0-10.9619-5.7998-16.7036-13.8613-16.7036-8.1201,0-13.8618,5.7417-13.8618,16.6455,0,10.9614,5.7417,16.7036,13.8618,16.7036Z"/><path class="cls-1" d="M73.4245,35.3897c0,8.9897-4.4658,13.2817-12.3535,13.2817-8.0039,0-12.3535-4.292-12.3535-13.2817V15.5542h4.4077v20.2412c0,5.8579,2.4941,8.8159,8.0039,8.8159,5.4517,0,8.0039-2.958,8.0039-8.8159V15.5542h4.2915v19.8354Z"/><path class="cls-1" d="M93.318,19.6719v28.3613h-4.3496V19.6719h-10.1499v-4.1177h24.6494v4.1177h-10.1499Z"/><path class="cls-1" d="M122.55,15.5542h4.3496V48.0332h-4.3496V15.5542Z"/><path class="cls-1" d="M155.4352,48.0332l-16.124-25.6353h-.1157c0,.0576,.0581,3.7119,.0581,7.5396v18.0957h-4.2339V15.5542h4.5815l16.0659,25.229h.1157c0-.0576-.0576-3.48-.0576-7.1338V15.5542h4.2915V48.0332h-4.5815Z"/><path class="cls-1" d="M193.5988,19.6719v28.3613h-4.3496V19.6719h-10.1499v-4.1177h24.6494v4.1177h-10.1499Z"/><path class="cls-1" d="M229.5583,48.0332v-14.6738h-15.5435v14.6738h-4.3496V15.5542h4.3496v13.7456h15.5435V15.5542h4.3506V48.0332h-4.3506Z"/><path class="cls-1" d="M242.029,15.5542h20.5898v4.1177h-16.2393v9.5698h12.5273v4.002h-12.5273v10.6719h16.4717v4.1177h-20.8223V15.5542Z"/><path class="cls-1" d="M284.8327,36.5493c.4062,5.3359,4.292,8.0039,10.0918,8.0039,5.2773,0,8.4092-2.2617,8.4092-6.9019,0-6.2637-5.6836-7.0176-10.3818-8.5835-5.1611-1.6821-11.4834-3.8862-11.4834-11.7739,0-6.728,4.6396-10.6138,12.5283-10.6138,6.8438,0,12.1211,2.8999,13.5713,9.918l-4.3496,1.1597c-.9863-4.4658-3.8281-6.9019-9.1641-6.9019-5.2197,0-7.9463,2.2622-7.9463,6.3218,0,5.104,4.4082,6.4961,9.8018,8.1782,5.6846,1.6816,12.0645,3.7695,12.0645,12.1797,0,7.4238-4.8145,11.1934-13.1084,11.1934-6.6113,0-13.3389-2.4355-14.3828-11.0195l4.3496-1.1602Z"/><path class="cls-1" d="M326.1862,19.6719v28.3613h-4.3496V19.6719h-10.1504v-4.1177h24.6504v4.1177h-10.1504Z"/><path class="cls-1" d="M352.8083,35.0415c-1.1592,.0581-2.4932,.0581-3.1318,.0581h-3.1318v12.9336h-4.292V15.5542h9.6279c7.4824,0,11.7158,3.5957,11.7158,9.7437,0,4.9878-2.7256,7.9458-6.6699,8.8735l7.4824,13.8618h-4.6982l-6.9023-12.9917Zm-.8115-3.48c4.6396,0,7.25-1.9141,7.25-5.9736,0-4.2339-2.7266-6.0322-7.3662-6.0322h-5.2773v12.0059h5.3936Z"/><path class="cls-1" d="M370.5563,15.5542h20.5898v4.1177h-16.2393v9.5698h12.5273v4.002h-12.5273v10.6719h16.4717v4.1177h-20.8223V15.5542Z"/><path class="cls-1" d="M398.0485,15.5542h20.5898v4.1177h-16.2393v9.5698h12.5273v4.002h-12.5273v10.6719h16.4717v4.1177h-20.8223V15.5542Z"/><path class="cls-1" d="M437.8366,19.6719v28.3613h-4.3496V19.6719h-10.1504v-4.1177h24.6504v4.1177h-10.1504Z"/></g><g><path class="cls-1" d="M72.5812,84.2139c0,.5957,.0327,1.0698,.0981,1.4229,.0659,.3535,.167,.6333,.3027,.8403,.1367,.2065,.3203,.3682,.5527,.4844,.2319,.1157,.5952,.2295,1.0898,.3403v.7417h-6.645v-.7417c.6255-.1611,1.0444-.3403,1.2563-.5376,.2119-.1963,.3506-.4766,.416-.8398,.0659-.3633,.0986-.918,.0986-1.665v-13.0933c0-.6963-.0254-1.2036-.0757-1.521-.0508-.3184-.1338-.5654-.2495-.7422-.1162-.1763-.2705-.3174-.4619-.4238-.1919-.1055-.52-.2241-.9839-.3555v-.7417h7.5078c2.3613,0,4.1196,.4517,5.2749,1.355,1.1558,.9028,1.7334,2.2778,1.7334,4.1245,0,1.0498-.1816,1.9932-.5449,2.8306-.3633,.8379-.8779,1.5239-1.5439,2.0586-.666,.5352-1.4531,.9185-2.3613,1.1504-.9082,.2324-1.8618,.3481-2.8608,.3481-1.1201,0-1.9883-.02-2.6035-.0605v5.0254Zm0-6.2817h1.7559c1.1401,0,2.0815-.1489,2.8228-.4463,.7422-.2979,1.3096-.7925,1.7031-1.4834,.3936-.6914,.5903-1.6069,.5903-2.7476,0-.8677-.1162-1.5918-.3481-2.1724-.2324-.5801-.5527-1.0464-.9609-1.3999-.4092-.353-.896-.603-1.4609-.7495-.5654-.146-1.1807-.2192-1.8467-.2192-.999,0-1.751,.0205-2.2554,.0605v9.1577Z"/><path class="cls-1" d="M112.4987,84.2593c0,.5854,.0151,1.0244,.0454,1.3169,.0303,.293,.0806,.5273,.1514,.7036,.0703,.1768,.1562,.3208,.2573,.4316,.1006,.1113,.2446,.2119,.4316,.3027,.1865,.0908,.4766,.187,.8701,.2876v.7417h-6.3423v-.7417c.5547-.1411,.9434-.2974,1.1655-.4692,.2217-.1714,.376-.4336,.4619-.7871,.0854-.353,.1284-.9482,.1284-1.7861v-6.3423h-8.416v6.3423c0,.6763,.0229,1.1709,.0679,1.4834,.0459,.313,.1211,.5601,.2275,.7417,.1055,.1816,.2622,.333,.4688,.4541,.207,.1211,.5425,.2422,1.0068,.3633v.7417h-6.3726v-.7417c.6255-.1611,1.0444-.3403,1.2563-.5376,.2119-.1963,.3506-.4766,.416-.8398,.0659-.3633,.0986-.918,.0986-1.665v-13.0933c0-.6963-.0254-1.2036-.0757-1.521-.0508-.3184-.1338-.5654-.2495-.7422-.1162-.1763-.2705-.3174-.4619-.4238-.1919-.1055-.52-.2241-.9839-.3555v-.7417h6.3726v.7417c-.4443,.1113-.7646,.2222-.9609,.333-.1973,.1113-.3535,.25-.4697,.416-.1157,.167-.2017,.4165-.2568,.7495-.0557,.333-.0835,.8477-.0835,1.5439v5.3584h8.416v-5.3584c0-.8779-.043-1.478-.1284-1.8013-.0859-.3228-.23-.5698-.4316-.7417-.2021-.1714-.6006-.3379-1.1958-.4995v-.7417h6.3423v.7417c-.5654,.1416-.959,.3003-1.1807,.4766-.2222,.1768-.3735,.4419-.4541,.7949-.0811,.3535-.1211,.9438-.1211,1.771v13.0933Z"/><path class="cls-1" d="M137.0676,88.2857c-1.2109,0-2.3135-.1992-3.3076-.5977-.9937-.3989-1.8467-1.0195-2.5576-1.8623-.7119-.8423-1.2617-1.9194-1.6504-3.2314-.3882-1.3115-.5825-2.8809-.5825-4.7075,0-2.25,.3428-4.1826,1.0293-5.7974,.686-1.6143,1.6675-2.8433,2.9438-3.6855,1.2769-.8428,2.7573-1.2642,4.4429-1.2642,1.7959,0,3.3071,.396,4.5337,1.188,1.2256,.7925,2.1494,1.958,2.7695,3.4971,.6211,1.5386,.9312,3.4131,.9312,5.623,0,2.3613-.3535,4.3545-1.0596,5.979-.7065,1.625-1.7026,2.8408-2.9897,3.6479-1.2861,.8076-2.7876,1.2109-4.5029,1.2109Zm-4.98-10.8228c0,3.0981,.4517,5.4546,1.355,7.0688,.9028,1.6147,2.2222,2.4219,3.958,2.4219,1.0996,0,2.0332-.3506,2.8003-1.0518,.7666-.7017,1.3418-1.728,1.7256-3.0806,.3833-1.3521,.5752-2.9312,.5752-4.7378,0-2.1997-.2246-4.0239-.6733-5.4717-.4492-1.4482-1.0625-2.5-1.8394-3.1562-.7773-.6558-1.6802-.9839-2.7095-.9839-.9082,0-1.6875,.2119-2.3389,.6357-.6504,.4238-1.1904,1.0269-1.6191,1.8091-.4292,.7817-.7422,1.728-.9385,2.8379-.1973,1.1104-.2954,2.3462-.2954,3.7085Z"/><path class="cls-1" d="M159.0637,67.3819h16.3779v5.2676h-1.4834c-.2222-.8677-.4414-1.5537-.6582-2.0586-.2173-.5044-.4468-.8877-.689-1.1504-.2422-.2622-.502-.4487-.7798-.5601-.2773-.1108-.6938-.1665-1.2485-.1665h-1.9224v15.5c0,.5957,.0327,1.0698,.0986,1.4229,.0654,.3535,.166,.6333,.3027,.8403,.1357,.2065,.3198,.3682,.5522,.4844,.2319,.1157,.5952,.2295,1.0898,.3403v.7417h-6.9175v-.7417c.3027-.0703,.5698-.146,.8022-.2271,.2319-.0806,.4214-.1792,.5679-.2949,.146-.1162,.2671-.2651,.3633-.4468,.0957-.1816,.1714-.4287,.2266-.7417,.0557-.3125,.0835-.772,.0835-1.3774v-15.5h-1.9072c-.4746,0-.8652,.0454-1.1733,.1362-.3076,.0908-.5928,.2803-.855,.5674-.2627,.2881-.502,.6963-.7192,1.2266-.2168,.5293-.4214,1.1982-.6128,2.0054h-1.4985v-5.2676Z"/><path class="cls-1" d="M196.9831,88.2857c-1.2109,0-2.3135-.1992-3.3076-.5977-.9937-.3989-1.8467-1.0195-2.5576-1.8623-.7119-.8423-1.2617-1.9194-1.6504-3.2314-.3882-1.3115-.5825-2.8809-.5825-4.7075,0-2.25,.3428-4.1826,1.0293-5.7974,.686-1.6143,1.6675-2.8433,2.9438-3.6855,1.2769-.8428,2.7573-1.2642,4.4429-1.2642,1.7959,0,3.3071,.396,4.5337,1.188,1.2256,.7925,2.1494,1.958,2.7695,3.4971,.6211,1.5386,.9312,3.4131,.9312,5.623,0,2.3613-.3535,4.3545-1.0596,5.979-.7065,1.625-1.7026,2.8408-2.9897,3.6479-1.2861,.8076-2.7876,1.2109-4.5029,1.2109Zm-4.98-10.8228c0,3.0981,.4517,5.4546,1.355,7.0688,.9028,1.6147,2.2222,2.4219,3.958,2.4219,1.0996,0,2.0332-.3506,2.8003-1.0518,.7666-.7017,1.3418-1.728,1.7256-3.0806,.3833-1.3521,.5752-2.9312,.5752-4.7378,0-2.1997-.2246-4.0239-.6733-5.4717-.4492-1.4482-1.0625-2.5-1.8394-3.1562-.7773-.6558-1.6802-.9839-2.7095-.9839-.9082,0-1.6875,.2119-2.3389,.6357-.6504,.4238-1.1904,1.0269-1.6191,1.8091-.4292,.7817-.7422,1.728-.9385,2.8379-.1973,1.1104-.2954,2.3462-.2954,3.7085Z"/><path class="cls-1" d="M234.7214,87.9678l-1.1807,.3179-1.1055-1.1807c-.6553,.4038-1.3418,.7017-2.0586,.8931-.7158,.1914-1.5381,.2876-2.4668,.2876-2.5537,0-4.4761-.8755-5.7676-2.626-1.292-1.751-1.9375-4.3521-1.9375-7.8032,0-2.1494,.353-4.0361,1.0596-5.6611,.7061-1.6245,1.7202-2.8735,3.0425-3.7466,1.3218-.8726,2.8765-1.3091,4.6626-1.3091,.9385,0,1.8418,.0532,2.71,.1587,.8672,.1064,1.8311,.2905,2.8906,.5527v4.1626h-1.498c-.2734-.9082-.5957-1.6172-.9688-2.1265-.374-.5098-.8203-.873-1.3398-1.0898-.5205-.2173-1.1787-.3257-1.9756-.3257-1.1006,0-2.0645,.3535-2.8916,1.0596-.8276,.7065-1.4707,1.7485-1.9302,3.1255-.459,1.3779-.6885,3.0405-.6885,4.9878,0,1.978,.1943,3.6685,.583,5.0708,.3882,1.4028,.9658,2.46,1.7329,3.1709,.7666,.7119,1.7109,1.0674,2.8311,1.0674,1.1904,0,2.0732-.2598,2.6494-.7793,.5742-.52,.8623-1.3193,.8623-2.3994v-.9082c0-.9082-.0479-1.564-.1436-1.9678-.0967-.4033-.2656-.7163-.5078-.9385-.2422-.2217-.6406-.4033-1.1953-.5449v-.7417h6.1152v.7417c-.3633,.1211-.6357,.2598-.8174,.416-.1816,.1567-.3203,.3511-.416,.583-.0967,.2324-.1621,.5171-.1973,.8555-.0352,.3379-.0527,.8198-.0527,1.4453v5.2524Z"/><path class="cls-1" d="M254.8552,79.0674v5.1465c0,.7266,.0273,1.2539,.083,1.5815,.0557,.3281,.1387,.5752,.25,.7422,.1113,.166,.2627,.3027,.4541,.4082,.1914,.1064,.5195,.2251,.9834,.356v.7417h-6.3867v-.7417c.625-.1611,1.0439-.3403,1.2559-.5376,.2119-.1963,.3506-.4766,.416-.8398s.0986-.918,.0986-1.665v-13.0933c0-.6963-.0254-1.2036-.0752-1.521-.0508-.3184-.1348-.5654-.25-.7422-.1162-.1763-.2705-.3174-.4619-.4238-.1914-.1055-.5195-.2241-.9834-.3555v-.7417h7.4922c2.3613,0,4.127,.4292,5.2979,1.2866,1.1709,.8579,1.7559,2.1899,1.7559,3.9961,0,1.3828-.3809,2.5581-1.1426,3.5269-.7627,.9688-1.9053,1.7256-3.4287,2.2705v.1211c.6152,.2524,1.1426,.6128,1.582,1.0825,.4385,.4688,.9258,1.1982,1.4609,2.187l1.3613,2.4824c.3945,.7266,.7324,1.2817,1.0146,1.665,.2822,.3838,.5703,.6763,.8623,.8779,.293,.2021,.6816,.3433,1.166,.4238v.7417h-4.1934c-.3828-.5347-.7461-1.1099-1.0898-1.7256-.3428-.6152-.6807-1.2412-1.0137-1.877l-1.332-2.5278c-.4033-.7666-.7344-1.332-.9912-1.6953-.2578-.3633-.4951-.6182-.7119-.7642-.2168-.1465-.4492-.2476-.6963-.3027-.2471-.0557-.6182-.0835-1.1123-.0835h-1.665Zm0-10.293v8.9912h1.71c.8789,0,1.5898-.063,2.1348-.189,.5449-.1265,1.0498-.3657,1.5137-.7192,.4639-.353,.835-.8452,1.1123-1.4761,.2773-.6304,.417-1.4048,.417-2.3232,0-.9585-.165-1.7559-.4922-2.3916-.3281-.6357-.8252-1.1201-1.4912-1.4531s-1.5645-.4995-2.6943-.4995c-.9082,0-1.6445,.0205-2.21,.0605Z"/><path class="cls-1" d="M290.777,88.0435v-.7417c.5049-.1006,.8799-.2119,1.1279-.333,.2471-.1211,.4307-.29,.5518-.5073,.1211-.2168,.1816-.5068,.1816-.8701,0-.3428-.04-.7139-.1211-1.1123-.0801-.3989-.1963-.8452-.3477-1.3398l-.5605-1.9526h-7.0527l-.5156,1.4834c-.2617,.7471-.4336,1.312-.5137,1.6953-.0811,.3838-.1211,.7319-.1211,1.0444,0,.6055,.1533,1.0498,.4609,1.332,.3076,.2827,.7793,.4692,1.416,.5601v.7417h-6.4639v-.7417c.5654-.0908,1.0566-.4185,1.4756-.9839,.4189-.5649,.8252-1.3721,1.2188-2.4219l6.3125-16.7563h2.3906l5.1465,16.8774c.2422,.7871,.457,1.3877,.6436,1.8013,.1865,.4141,.4111,.7368,.6738,.9688,.2627,.2324,.6201,.4038,1.0752,.5146v.7417h-6.9785Zm-5.8125-8.1738h6.3271l-2.876-9.7632-3.4512,9.7632Z"/><path class="cls-1" d="M315.5427,84.2139c0,.5957,.0322,1.0698,.0977,1.4229,.0654,.3535,.167,.6333,.3027,.8403,.1367,.2065,.3203,.3682,.5527,.4844,.2324,.1157,.5957,.2295,1.0898,.3403v.7417h-6.6445v-.7417c.625-.1611,1.0439-.3403,1.2559-.5376,.2119-.1963,.3506-.4766,.416-.8398s.0986-.918,.0986-1.665v-13.0933c0-.6963-.0254-1.2036-.0752-1.521-.0508-.3184-.1348-.5654-.25-.7422-.1162-.1763-.2705-.3174-.4619-.4238-.1914-.1055-.5195-.2241-.9834-.3555v-.7417h7.5078c2.3613,0,4.1191,.4517,5.2744,1.355,1.1553,.9028,1.7334,2.2778,1.7334,4.1245,0,1.0498-.1816,1.9932-.5449,2.8306-.3633,.8379-.8779,1.5239-1.5439,2.0586-.666,.5352-1.4531,.9185-2.3613,1.1504-.9082,.2324-1.8623,.3481-2.8604,.3481-1.1211,0-1.9883-.02-2.6035-.0605v5.0254Zm0-6.2817h1.7559c1.1396,0,2.0811-.1489,2.8223-.4463,.7422-.2979,1.3096-.7925,1.7031-1.4834,.3936-.6914,.5898-1.6069,.5898-2.7476,0-.8677-.1152-1.5918-.3477-2.1724-.2324-.5801-.5527-1.0464-.9609-1.3999-.4092-.353-.8955-.603-1.4609-.7495-.5654-.146-1.1807-.2192-1.8467-.2192-.999,0-1.751,.0205-2.2549,.0605v9.1577Z"/><path class="cls-1" d="M355.4596,84.2593c0,.5854,.0156,1.0244,.0449,1.3169,.0312,.293,.0811,.5273,.1523,.7036,.0703,.1768,.1562,.3208,.2568,.4316,.1006,.1113,.2441,.2119,.4316,.3027,.1865,.0908,.4766,.187,.8701,.2876v.7417h-6.3418v-.7417c.5547-.1411,.9434-.2974,1.165-.4692,.2217-.1714,.376-.4336,.4619-.7871,.085-.353,.1289-.9482,.1289-1.7861v-6.3423h-8.416v6.3423c0,.6763,.0225,1.1709,.0674,1.4834,.0459,.313,.1211,.5601,.2275,.7417,.1055,.1816,.2617,.333,.4688,.4541s.543,.2422,1.0068,.3633v.7417h-6.3721v-.7417c.625-.1611,1.0439-.3403,1.2559-.5376,.2119-.1963,.3506-.4766,.416-.8398s.0986-.918,.0986-1.665v-13.0933c0-.6963-.0254-1.2036-.0752-1.521-.0508-.3184-.1348-.5654-.25-.7422-.1162-.1763-.2705-.3174-.4619-.4238-.1914-.1055-.5195-.2241-.9834-.3555v-.7417h6.3721v.7417c-.4443,.1113-.7646,.2222-.9609,.333-.1973,.1113-.3535,.25-.4697,.416-.1162,.167-.2021,.4165-.2568,.7495-.0557,.333-.083,.8477-.083,1.5439v5.3584h8.416v-5.3584c0-.8779-.0439-1.478-.1289-1.8013-.0859-.3228-.2295-.5698-.4316-.7417-.2021-.1714-.6006-.3379-1.1953-.4995v-.7417h6.3418v.7417c-.5654,.1416-.959,.3003-1.1807,.4766-.2217,.1768-.373,.4419-.4541,.7949-.0811,.3535-.1211,.9438-.1211,1.771v13.0933Z"/><path class="cls-1" d="M377.4255,79.3701l-4.1777-7.7651c-.5049-.9385-.8877-1.6094-1.1504-2.0132-.2627-.4033-.5244-.7212-.7871-.9536-.2627-.2319-.5654-.4033-.9082-.5146v-.7417h6.4482v.7417c-.9482,.1113-1.4229,.52-1.4229,1.2261,0,.293,.0684,.6206,.2041,.9839,.1367,.3633,.3809,.8779,.7344,1.5439l3.0273,5.7671,2.9824-5.2676c.4033-.7163,.6885-1.3042,.8545-1.7632,.167-.4595,.25-.8804,.25-1.2642,0-.3633-.1084-.6484-.3252-.855-.2178-.207-.5371-.3306-.9609-.3711v-.7417h5.7363v.7417c-.4141,.1514-.7773,.3608-1.0898,.6279-.3125,.2676-.6309,.6284-.9531,1.0825-.3232,.4541-.7979,1.2212-1.4238,2.3008l-4.207,7.1748v4.9043c0,.5752,.0293,1.0396,.0898,1.3926,.0605,.3535,.1621,.6357,.3027,.8477,.1416,.2119,.3281,.3784,.5605,.4995s.5957,.2373,1.0898,.3481v.7417h-6.918v-.7417c.4844-.1006,.8428-.2095,1.0752-.3257,.2324-.1157,.4189-.2822,.5596-.499,.1416-.2173,.2451-.502,.3105-.8555,.0654-.353,.0986-.8223,.0986-1.4077v-4.8438Z"/></g></svg>